<svg xmlns="http://www.w3.org/2000/svg" width="16.918" height="16.338" viewBox="0 0 16.918 16.338">
  <path id="Forma_1" data-name="Forma 1" d="M1555.582,622a.775.775,0,0,1-.251.692l-2.382,2.285a1.34,1.34,0,0,1-.421.294,1.785,1.785,0,0,1-.51.156l-.107.009q-.09.009-.233.009a8.168,8.168,0,0,1-2.964-.666,15.831,15.831,0,0,1-2.5-1.324,18.486,18.486,0,0,1-2.973-2.423,19.174,19.174,0,0,1-2.078-2.285,16.18,16.18,0,0,1-1.325-2.016,10.665,10.665,0,0,1-.752-1.679,8.693,8.693,0,0,1-.34-1.3,4.147,4.147,0,0,1-.072-.857q.018-.311.018-.346a1.639,1.639,0,0,1,.161-.493,1.3,1.3,0,0,1,.3-.407l2.382-2.3a.8.8,0,0,1,.573-.242.683.683,0,0,1,.412.13,1.216,1.216,0,0,1,.3.32l1.916,3.513a.817.817,0,0,1,.09.606,1.069,1.069,0,0,1-.3.554l-.878.848a.287.287,0,0,0-.063.112.417.417,0,0,0-.027.13,3.053,3.053,0,0,0,.323.831,7.544,7.544,0,0,0,.663,1.012,11.36,11.36,0,0,0,1.271,1.376,11.746,11.746,0,0,0,1.433,1.237,8.32,8.32,0,0,0,1.048.649,2.842,2.842,0,0,0,.645.251l.224.043a.438.438,0,0,0,.116-.026.306.306,0,0,0,.117-.061l1.021-1a1.118,1.118,0,0,1,.752-.277.962.962,0,0,1,.484.1h.018l3.457,1.973A.874.874,0,0,1,1555.582,622Z" transform="translate(-1538.672 -609.11)" fill="#fff"/>
</svg>
