<svg xmlns="http://www.w3.org/2000/svg" width="16.268" height="15.71" viewBox="0 0 16.268 15.71">
  <path id="Forma_1_copy_3" data-name="Forma 1 copy 3" d="M1548.5,736.187v-.018h-1.085v.018a8,8,0,0,0-7.573,7.313h-.018v1.047h.018a8,8,0,0,0,7.573,7.313v.018h1.085v-.018a8,8,0,0,0,7.573-7.313h.019V743.5h-.019A8,8,0,0,0,1548.5,736.187Zm-3.585,1.694a8.223,8.223,0,0,0-1.275,2.477h-1.625A7.018,7.018,0,0,1,1544.912,737.881Zm-3.467,3.524h1.906a12.074,12.074,0,0,0-.267,2.095h-2.159A6.548,6.548,0,0,1,1541.446,741.405Zm-.519,3.142h2.159a12.069,12.069,0,0,0,.267,2.095h-1.906A6.549,6.549,0,0,1,1540.926,744.547Zm1.087,3.142h1.624a8.2,8.2,0,0,0,1.276,2.477A7.014,7.014,0,0,1,1542.013,747.689Zm5.4,3.074c-1.115-.287-2.075-1.444-2.657-3.074h2.657Zm0-4.122h-2.962a11.336,11.336,0,0,1-.281-2.095h3.243Zm0-3.142h-3.243a11.335,11.335,0,0,1,.281-2.095h2.962Zm0-3.142h-2.657c.582-1.631,1.543-2.787,2.657-3.074Zm6.484,0h-1.622a8.21,8.21,0,0,0-1.277-2.477A7.013,7.013,0,0,1,1553.9,740.358Zm-5.4-3.074c1.114.287,2.075,1.443,2.657,3.074H1548.5Zm0,4.121h2.961a11.387,11.387,0,0,1,.282,2.095H1548.5Zm0,3.142h3.243a11.3,11.3,0,0,1-.282,2.095H1548.5Zm0,6.216v-3.074h2.657C1550.572,749.319,1549.611,750.476,1548.5,750.764Zm2.5-.6a8.242,8.242,0,0,0,1.277-2.477h1.622A7.01,7.01,0,0,1,1551,750.166Zm3.468-3.524h-1.906a12.081,12.081,0,0,0,.267-2.095h2.159A6.564,6.564,0,0,1,1554.464,746.642Zm-1.64-3.142a12.086,12.086,0,0,0-.267-2.095h1.906a6.564,6.564,0,0,1,.519,2.095Z" transform="translate(-1539.821 -736.169)" fill="#fff"/>
</svg>
